<?xml version="1.0" ?><!DOCTYPE svg  PUBLIC '-//W3C//DTD SVG 1.0//EN'  'http://www.w3.org/TR/2001/REC-SVG-20010904/DTD/svg10.dtd'><svg enable-background="new 0 0 32 32" height="32px" id="Layer_1" version="1.0" viewBox="0 0 32 32" width="32px" xml:space="preserve" xmlns="http://www.w3.org/2000/svg" xmlns:xlink="http://www.w3.org/1999/xlink"><path d="M14.436,18.655v8.665c0,0.677-0.549,1.226-1.227,1.226s-1.227-0.548-1.227-1.226v-5.707l-9.891,9.891  c-0.238,0.239-0.553,0.359-0.867,0.359c-0.313,0-0.625-0.12-0.865-0.359c-0.479-0.479-0.479-1.254,0-1.733l9.891-9.892H4.543  c-0.678,0-1.227-0.548-1.227-1.225c0-0.676,0.549-1.226,1.227-1.226h8.666C13.887,17.43,14.436,17.979,14.436,18.655z M31.641,0.495  c-0.477-0.479-1.252-0.479-1.732,0L19.883,10.522V4.815c0-0.677-0.549-1.225-1.227-1.225c-0.676,0-1.225,0.548-1.225,1.225v8.665  c0,0.677,0.549,1.226,1.225,1.226h8.664c0.678,0,1.227-0.549,1.227-1.226s-0.549-1.225-1.227-1.225h-5.705L31.641,2.229  C32.119,1.75,32.119,0.975,31.641,0.495z"/></svg>