<?xml version="1.0" standalone="no"?>
<!DOCTYPE svg PUBLIC "-//W3C//DTD SVG 20010904//EN"
 "http://www.w3.org/TR/2001/REC-SVG-20010904/DTD/svg10.dtd">
<svg version="1.0" xmlns="http://www.w3.org/2000/svg"
 width="512.000000pt" height="512.000000pt" viewBox="0 0 512.000000 512.000000"
 preserveAspectRatio="xMidYMid meet">

<g transform="translate(0.000000,512.000000) scale(0.100000,-0.100000)"
fill="#000000" stroke="none">
<path d="M4101 5104 c-77 -21 -143 -59 -201 -118 -61 -62 -84 -98 -110 -176
-27 -79 -27 -206 -1 -282 l19 -55 -642 -641 -641 -641 -80 40 c-44 22 -102 46
-130 53 l-50 12 -3 172 -2 171 55 27 c66 33 152 115 188 182 97 178 65 392
-79 538 -281 281 -764 78 -764 -321 0 -176 109 -345 264 -410 l36 -15 0 -170
0 -169 -57 -17 c-32 -9 -92 -34 -134 -55 l-76 -38 -416 417 -416 417 19 55
c40 114 18 279 -50 382 -98 147 -282 229 -451 199 -182 -33 -317 -159 -364
-338 -53 -204 47 -413 244 -511 66 -33 83 -37 170 -40 75 -3 110 1 157 16 l62
19 416 -416 415 -416 -29 -50 c-16 -27 -41 -87 -56 -132 l-27 -83 -243 0 -243
0 -31 58 c-148 277 -518 325 -730 94 -157 -170 -157 -434 0 -604 145 -158 378
-193 562 -85 58 34 140 122 172 185 l26 52 244 0 243 0 27 -82 c15 -46 40
-105 56 -133 l29 -50 -416 -416 -416 -417 -54 20 c-126 44 -296 16 -407 -67
-320 -239 -201 -735 193 -806 169 -30 353 52 451 199 68 102 89 260 51 380
l-18 60 416 416 416 416 70 -37 c39 -20 97 -45 130 -54 l60 -16 3 -471 2 -472
-52 -26 c-113 -56 -187 -142 -228 -265 -19 -53 -21 -80 -18 -160 4 -84 9 -104
41 -171 86 -178 284 -283 472 -251 266 46 436 302 370 558 -31 119 -124 234
-233 289 l-52 26 2 471 3 471 71 22 c39 13 98 37 130 55 l58 31 264 -262 c208
-208 262 -267 258 -283 -33 -124 -39 -180 -28 -248 17 -96 60 -182 124 -245
62 -61 104 -88 173 -112 219 -75 458 27 558 237 30 65 32 74 32 188 0 113 -2
124 -31 185 -63 134 -181 226 -326 256 -79 17 -139 13 -226 -14 l-53 -16 -266
266 -265 265 27 48 c15 25 41 83 56 128 l28 82 696 3 695 2 26 -52 c32 -63
114 -151 172 -185 184 -108 417 -73 561 84 158 171 158 435 1 605 -211 231
-582 184 -730 -93 l-31 -59 -696 2 -695 3 -23 72 c-12 40 -37 98 -55 129 l-32
57 644 643 643 643 55 -19 c114 -40 272 -19 379 49 149 96 232 281 202 452
-48 264 -306 432 -560 363z"/>
</g>
<rect x="416.635" y="19.645" width="10.713" height="51.943" style="fill: rgb(255, 255, 255);"></rect>
<rect x="394.62" y="40.552" width="53.417" height="10.713" style="fill: rgb(255, 255, 255);"></rect>
</svg>
