<?xml version="1.0"?>
<svg xmlns="http://www.w3.org/2000/svg" viewBox="0 0 50 50">
    <path d="M 19 0 C 14.037 0 10 4.038 10 9 C 10 13.62408 13.505968 17.442332 18 17.941406 L 18 45 L 31 45 L 31 48 L 39 48 L 39 40 L 31 40 L 31 41 L 31 43 L 20 43 L 20 34 L 31 34 L 31 37 L 39 37 L 39 29 L 31 29 L 31 30 L 31 32 L 20 32 L 20 23 L 31 23 L 31 26 L 39 26 L 39 18 L 31 18 L 31 19 L 31 21 L 20 21 L 20 17.941406 C 24.494032 17.442332 28 13.62408 28 9 C 28 4.038 23.963 0 19 0 z M 18 5 L 20 5 L 20 8 L 23 8 L 23 10 L 20 10 L 20 13 L 18 13 L 18 10 L 15 10 L 15 8 L 18 8 L 18 5 z M 33 20 L 37 20 L 37 24 L 33 24 L 33 23 L 33 21 L 33 20 z M 33 31 L 37 31 L 37 35 L 33 35 L 33 31 z M 33 42 L 37 42 L 37 46 L 33 46 L 33 42 z"/>
</svg>
