<?xml version="1.0" encoding="utf-8"?>
<!-- Svg Vector Icons : http://www.onlinewebfonts.com/icon -->
<!DOCTYPE svg PUBLIC "-//W3C//DTD SVG 1.1//EN" "http://www.w3.org/Graphics/SVG/1.1/DTD/svg11.dtd">
<svg version="1.1" xmlns="http://www.w3.org/2000/svg" xmlns:xlink="http://www.w3.org/1999/xlink" x="0px" y="0px" viewBox="0 0 1000 1000" enable-background="new 0 0 1000 1000" xml:space="preserve">
<metadata> Svg Vector Icons : http://www.onlinewebfonts.com/icon </metadata>
<g><path d="M461.7,930.6c-58.8,0-117.6,0-176.4,0c-29.1,0-58.2,0-87.3,0c-2.2,0-4.5,0-6.7,0c-3,0-5.9-0.1-8.9-0.3c-1.7-0.1-3.4-0.3-5-0.5c9.3,1.1,3.3,0.4,1.2,0.1c-3.8-0.7-7.5-1.6-11.3-2.7c-3.1-0.9-6.2-2-9.3-3.2c-5.7-2.2,6.6,2.9,1.1,0.4c-1.5-0.7-2.9-1.4-4.4-2.1c-2.9-1.5-5.7-3.1-8.4-4.8c-2.2-1.4-12.4-9.1-4.5-2.8c-5-4-9.6-8.5-13.9-13.3c-1.1-1.2-2.1-2.4-3.1-3.7c-3.8-4.6,4.3,5.8,0.7,0.9c-2.2-3-4.2-6.2-6.1-9.5c-1.7-2.8-3.1-5.7-4.5-8.6c-0.9-1.8-3.1-7.4,0.4,1.1c-0.6-1.5-1.2-3.1-1.7-4.6c-2.4-6.8-4.1-13.8-5.2-20.9c1.6,10.4,0-1.4-0.1-4c-0.1-1.7-0.1-3.5-0.1-5.2c0-0.2,0-0.5,0-0.7c0-3.8,0-7.6,0-11.4c0-19.3,0-38.7,0-58c0-69.6,0-139.2,0-208.7c0-79.9,0-159.7,0-239.6c0-53.1,0-106.2,0-159.2c0-4.7,0-9.5,0-14.2c0-0.7,0-1.4,0-2.1c0-2.3,0.1-4.6,0.2-6.9c0.1-1.7,0.3-3.4,0.4-5.1c0.6-6.3-1.1,7.4-0.2,1.2c1.1-7.1,3.1-14.1,5.5-20.8c0.7-1.9,3.1-7.4-0.5,1c0.6-1.5,1.3-3,2.1-4.4c1.4-2.9,3-5.8,4.6-8.5c1.6-2.8,3.5-5.5,5.3-8.1c3.5-4.9-4.4,5.6-0.7,0.9c1.3-1.7,2.8-3.3,4.2-4.9c2.1-2.4,4.4-4.6,6.8-6.8c1.7-1.6,10.6-8.7,2.6-2.6c5.5-4.3,11.6-7.9,17.8-11c1.4-0.7,2.9-1.4,4.4-2.1c-8.3,3.8-2.9,1.3-1,0.5c3.1-1.2,6.2-2.1,9.3-3c3.2-0.9,6.4-1.6,9.7-2.2c2-0.4,8.2-1.2-1.2,0.1c2.2-0.3,4.5-0.5,6.7-0.6c2.7-0.2,5.5-0.2,8.2-0.2c42,0,83.9,0,125.9,0c77.9,0,155.8,0,233.6,0c68.2,0,136.4,0,204.6,0c16.2,0,32.4,0,48.6,0c1.2,0,2.5,0,3.7,0c0.7,0,1.4,0,2.1,0c3.4,0,6.8,0.3,10.2,0.6c6.3,0.6-7.4-1.1-1.2-0.2c2.2,0.3,4.4,0.8,6.5,1.3c3.2,0.7,6.4,1.6,9.5,2.6c2.3,0.7,12.9,5.1,3.6,1.1c6.4,2.8,12.5,6.3,18.3,10.3c1.3,0.9,2.6,1.9,3.9,2.8c-7.2-5.4-2.5-1.9-0.9-0.6c2.5,2.1,4.8,4.3,7.1,6.5c2.3,2.3,4.4,4.7,6.5,7.1c1.3,1.5,4.8,6.3-0.6-1c1.3,1.7,2.5,3.5,3.7,5.3c3.6,5.4,6.6,11.1,9.3,17.1c-4.1-9.3,0.3,1.3,1.1,3.6c1.2,3.7,2.1,7.4,3,11.2c0.4,1.6,0.6,3.3,0.9,4.9c1.1,6.2-0.9-7.5-0.2-1.2c0.4,3.4,0.5,6.8,0.6,10.3c0,0.8,0,1.6,0,2.4c0,5.5,0,10.9,0,16.4c0,27.7,0,55.4,0,83c0,78.1,0,156.3,0,234.4c0,28.8,0,57.7,0,86.5c0,16.2,13.4,29.7,29.4,29.7s29.4-13.5,29.4-29.7c0-47.7,0-95.3,0-143c0-75.7,0-151.4,0-227.1c0-16.8,0-33.6,0-50.4c0-26-7-51.8-20.2-74.1C913.6,50.5,887,30,856.1,18.1c-20.6-7.9-42.4-8.1-64-8.1c-22.3,0-44.6,0-66.8,0c-73.7,0-147.3,0-221,0c-74.5,0-148.9,0-223.4,0c-23.3,0-46.6,0-69.8,0c-19.1,0-37.5-0.1-56.3,4.7C93.2,30.3,49.1,89.5,49.1,153c0,9.7,0,19.4,0,29c0,58.9,0,117.7,0,176.6c0,80.6,0,161.3,0,241.9c0,65.3,0,130.7,0,196c0,15.4,0,30.7,0,46.1c0,41.6,15.3,81.6,46.2,109.8c25.1,22.9,56.8,35.5,90.5,37.3c6.6,0.3,13.3,0.1,19.9,0.1c32.5,0,65,0,97.5,0c52.8,0,105.7,0,158.5,0c16,0,29.4-13.5,29.4-29.7C491.1,944.1,477.7,930.6,461.7,930.6L461.7,930.6L461.7,930.6z M900.7,707.5c-38.2,40.1-76.4,80.2-114.5,120.3c-35.4,37.1-70.7,74.3-106.1,111.4c13.9,0,27.7,0,41.6,0c-28.6-25.8-57.3-51.5-85.9-77.3c-12-10.8-29.8-11.9-41.6,0c-10.9,10.9-12,31.2,0,41.9c28.6,25.8,57.3,51.5,85.9,77.3c11.8,10.6,30,12.2,41.6,0c38.2-40.1,76.4-80.2,114.5-120.3c35.4-37.1,70.7-74.3,106.1-111.4c11.1-11.7,11.5-30.3,0-42C931.1,696.3,911.8,695.9,900.7,707.5L900.7,707.5z M308.4,294.6c49.9,0,99.7,0,149.6,0c70.4,0,140.7,0,211.1,0c7.5,0,15,0,22.4,0c16,0,29.4-13.5,29.4-29.7c0-16.2-13.4-29.7-29.4-29.7c-49.9,0-99.7,0-149.6,0c-70.4,0-140.7,0-211.1,0c-7.5,0-15,0-22.4,0c-16,0-29.4,13.5-29.4,29.7C279,281.2,292.4,294.6,308.4,294.6L308.4,294.6L308.4,294.6z M308.4,526.4c49.9,0,99.7,0,149.6,0c70.4,0,140.7,0,211.1,0c7.5,0,15,0,22.4,0c16,0,29.4-13.5,29.4-29.7c0-16.2-13.4-29.7-29.4-29.7c-49.9,0-99.7,0-149.6,0c-70.4,0-140.7,0-211.1,0c-7.5,0-15,0-22.4,0c-16,0-29.4,13.5-29.4,29.7C279,512.9,292.4,526.4,308.4,526.4L308.4,526.4L308.4,526.4z M308.4,758.2c51.1,0,102.2,0,153.3,0c16,0,29.4-13.5,29.4-29.7c0-16.2-13.4-29.7-29.4-29.7c-51.1,0-102.2,0-153.3,0c-16,0-29.4,13.5-29.4,29.7C279,744.7,292.4,758.2,308.4,758.2L308.4,758.2z"/></g>
</svg>